<?xml version="1.0" standalone="no"?>
<!DOCTYPE svg PUBLIC "-//W3C//DTD SVG 20010904//EN"
 "http://www.w3.org/TR/2001/REC-SVG-20010904/DTD/svg10.dtd">
<svg version="1.0" xmlns="http://www.w3.org/2000/svg"
 width="217.000000pt" height="31.000000pt" viewBox="0 0 217.000000 31.000000"
 preserveAspectRatio="xMidYMid meet">

<g transform="translate(0.000000,31.000000) scale(0.100000,-0.100000)"
fill="#000000" stroke="none">
<path d="M149 204 c-41 -96 -60 -147 -55 -152 3 -2 13 12 22 32 16 32 22 36
56 36 34 0 40 -4 55 -35 9 -19 20 -35 25 -35 4 0 8 2 8 3 0 8 -77 187 -83 193
-4 4 -16 -15 -28 -42z m30 -72 c-17 -2 -33 -1 -36 1 -2 3 3 22 13 43 l16 39
19 -40 18 -40 -30 -3z"/>
<path d="M308 239 c-30 -17 -20 -49 30 -95 40 -37 45 -46 36 -61 -8 -13 -24
-18 -54 -17 -39 1 -41 0 -24 -13 36 -27 104 3 104 46 0 8 -21 34 -47 58 -40
36 -46 46 -36 61 7 11 21 16 43 14 19 -1 29 2 25 8 -8 13 -55 12 -77 -1z"/>
<path d="M450 150 c0 -60 4 -100 10 -100 6 0 10 20 10 45 l0 45 65 0 65 0 0
-45 c0 -25 5 -45 10 -45 6 0 10 40 10 100 0 60 -4 100 -10 100 -5 0 -10 -20
-10 -45 l0 -45 -65 0 -65 0 0 45 c0 25 -4 45 -10 45 -6 0 -10 -40 -10 -100z"/>
<path d="M709 221 c-78 -78 4 -209 104 -167 43 17 60 46 60 100 0 32 -6 45
-32 68 -43 39 -92 38 -132 -1z m129 -17 c49 -55 10 -143 -65 -144 -41 0 -73
39 -73 89 0 83 83 116 138 55z"/>
<path d="M935 150 c0 -55 3 -100 8 -100 4 0 7 20 7 45 0 25 2 45 5 45 2 0 23
-20 45 -44 38 -41 80 -65 80 -45 0 5 -6 9 -14 9 -14 0 -86 76 -86 90 0 4 18
28 41 54 52 59 35 60 -20 1 -23 -25 -44 -45 -46 -45 -3 0 -5 20 -5 45 0 25 -3
45 -7 45 -5 0 -8 -45 -8 -100z"/>
<path d="M1212 238 c-23 -23 -13 -56 27 -89 46 -37 56 -56 39 -76 -8 -11 -24
-14 -50 -10 -43 6 -52 -7 -11 -17 42 -11 83 11 83 45 0 26 -42 79 -62 79 -4 0
-12 9 -18 19 -15 29 13 54 52 45 21 -4 28 -3 24 5 -9 15 -69 14 -84 -1z"/>
<path d="M1360 150 c0 -60 4 -100 10 -100 6 0 10 40 10 100 0 60 -4 100 -10
100 -6 0 -10 -40 -10 -100z"/>
<path d="M1452 150 l2 -105 5 84 6 84 70 -81 c38 -45 73 -82 77 -82 5 0 8 45
8 100 0 60 -4 100 -10 100 -6 0 -10 -34 -10 -82 l-1 -83 -27 30 c-15 17 -48
55 -74 85 l-48 55 2 -105z"/>
<path d="M1709 221 c-77 -78 11 -211 114 -172 24 9 27 16 27 56 0 25 -4 45
-10 45 -5 0 -10 -20 -10 -45 0 -45 0 -45 -36 -45 -48 0 -73 15 -90 55 -29 71
25 131 108 119 32 -4 39 -3 28 5 -8 6 -34 11 -58 11 -35 0 -49 -6 -73 -29z"/>
<path d="M1923 150 c0 -58 2 -84 4 -57 l4 47 70 0 69 0 0 -45 c0 -25 3 -45 8
-45 4 0 5 46 3 102 -4 78 -6 92 -10 58 l-6 -45 -65 0 -65 0 -6 45 c-4 28 -6 5
-6 -60z"/>
</g>
</svg>
